<svg xmlns="http://www.w3.org/2000/svg" width="710" height="176" viewBox="0 0 710 176" role="img" aria-labelledby="title desc">
<title id="title">Casal Corretores</title><desc id="desc">Marca Casal Corretores: casa dourada, laço de união, nome azul e dourado. Sonhos em endereços reais.</desc>
<g transform="translate(6 5)"><g>
<defs><linearGradient id="metal" x1="0" x2=".85" y1="0" y2="1"><stop stop-color="#AC7939"/><stop offset=".36" stop-color="#E7C792"/><stop offset=".67" stop-color="#C29659"/><stop offset="1" stop-color="#D4AF7F"/></linearGradient></defs>
<path d="M8 80 58 36 70 47 27 85Z" fill="url(#metal)"/>
<path d="M28 81 103 14 168 71 153 71 103 34 42 91 42 144 28 144Z" fill="url(#metal)"/>
<rect x="101" y="60" width="11" height="11" rx=".6" fill="#0E2A47"/><rect x="116" y="60" width="11" height="11" rx=".6" fill="#0E2A47"/><rect x="101" y="75" width="11" height="11" rx=".6" fill="#0E2A47"/><rect x="116" y="75" width="11" height="11" rx=".6" fill="#0E2A47"/>
<path d="M66 111 C45 91 31 111 45 130 C57 149 78 148 97 128 C116 107 128 102 141 104 C166 106 163 145 139 147 C123 150 111 140 98 127" fill="none" stroke="#0E2A47" stroke-width="21" stroke-linecap="round" stroke-linejoin="round"/>
<path d="M52 146 C72 150 89 135 106 120 S137 97 154 104" fill="none" stroke="url(#metal)" stroke-width="10" stroke-linecap="round"/>
<circle cx="160" cy="94" r="11.5" fill="#0E2A47"/>
</g></g>
<text x="198" y="96" font-family="Georgia,'Times New Roman',serif" font-size="82" letter-spacing="-4" fill="#0E2A47">CASAL</text>
<text x="468" y="96" font-family="Arial,Helvetica,sans-serif" font-size="29.5" font-weight="600" letter-spacing=".45" fill="#D4AF7F">CORRETORES</text>
<path d="M202 111H699" stroke="#D4AF7F" stroke-width="1.4" opacity=".75"/>
<text x="204" y="138" font-family="Arial,Helvetica,sans-serif" font-size="15" letter-spacing="5.4" font-weight="500" fill="#0E2A47">SONHOS EM ENDEREÇOS REAIS</text>
</svg>