<svg xmlns="http://www.w3.org/2000/svg" viewBox="0 0 510 154" role="img" aria-labelledby="casal-title casal-description">
<title id="casal-title">Casal Corretores</title>
<desc id="casal-description">Uma casa dourada envolvendo duas formas que se encontram, símbolo de parceria, confiança e lar.</desc>
<g transform="translate(4 1) scale(.80)">
 <path d="M18 91 103 17 143 51 157 37 204 82" fill="none" stroke="#D4AF7F" stroke-width="15" stroke-linejoin="miter" stroke-linecap="square"/>
 <path d="M44 85 V112" fill="none" stroke="#D4AF7F" stroke-width="12"/>
 <g fill="#0E2A47"><rect x="111" y="57" width="10" height="10"/><rect x="125" y="57" width="10" height="10"/><rect x="111" y="71" width="10" height="10"/><rect x="125" y="71" width="10" height="10"/></g>
 <path d="M95 116 C77 91 57 91 47 106 C29 135 56 162 82 151 C103 142 111 123 131 110 C151 96 169 100 175 114 C190 149 150 164 123 136" fill="none" stroke="#0E2A47" stroke-width="21" stroke-linecap="round" stroke-linejoin="round"/>
 <path d="M61 150 C83 151 98 142 114 127 C129 113 142 102 163 99" fill="none" stroke="#D4AF7F" stroke-width="11" stroke-linecap="round"/>
 <circle cx="176" cy="90" r="12" fill="#0E2A47"/></g>
<text x="169" y="67" font-family="'Playfair Display',Georgia,serif" font-size="63" font-weight="600" letter-spacing=".1" fill="#0E2A47">CASAL</text>
<text x="173" y="99" font-family="Montserrat,Arial,sans-serif" font-size="20.5" font-weight="600" letter-spacing="6" fill="#D4AF7F">CORRETORES</text>
<path d="M172 108H463" stroke="#D4AF7F" stroke-width="1" opacity=".78"/>
<text x="174" y="129" font-family="Montserrat,Arial,sans-serif" font-size="10.2" font-weight="500" letter-spacing="2.25" fill="#0E2A47">SONHOS EM ENDEREÇOS REAIS</text>
</svg>